# xmcd
#
# Track frame offsets:
#	150
#	12501
#	26262
#	39892
#	59025
#	74348
#	93641
#	109328
#	125936
#	143066
#	153894
#	172289
#	182678
#
# Disc length: 2721 seconds
# Revision: 0
# Processed by: cddbd v1.5.2PL0 Copyright (c) Steve Scherf et al.
# Submitted via: dBpowerAMP V12.0
#
DISCID=bb0a9f0d
DTITLE=The Kickin Grass Band - Walk With Me
DYEAR=2012
DGENRE=Country
TTITLE0=No One Can Live Forever
TTITLE1=Ghosts In My Head
TTITLE2=Walk With Me
TTITLE3=Thirty One
TTITLE4=Sugar
TTITLE5=The Filling Station
TTITLE6=Gum Stump Squirrel
TTITLE7=King's Highway
TTITLE8=Long Ride Home
TTITLE9=That's What I Like About The South
TTITLE10=Blue Railroad Train
TTITLE11=Roanoke
TTITLE12=Everything And Everyone
EXTD=
EXTT0=
EXTT1=
EXTT2=
EXTT3=
EXTT4=
EXTT5=
EXTT6=
EXTT7=
EXTT8=
EXTT9=
EXTT10=
EXTT11=
EXTT12=
PLAYORDER=
